<svg xmlns="http://www.w3.org/2000/svg" xmlns:xlink="http://www.w3.org/1999/xlink" version="1.1" x="0px" y="0px" enable-background="new 0 0 1000 1000" xml:space="preserve" viewBox="10.01 200.87 980 598.26">
<metadata> Svg Vector Icons : http://www.onlinewebfonts.com/icon </metadata>
<g><g transform="translate(0.000000,511.000000) scale(0.100000,-0.100000)"><path d="M4597.2,3090.2c-153.2-7.7-509.3-40.2-794.5-72.7c-283.3-32.6-624.1-65.1-752.4-72.8c-231.7-11.5-239.3-13.4-346.5-82.3c-281.4-181.9-903.7-750.5-1705.9-1564.2c-499.7-505.4-553.3-564.8-628-708.4C262.7,385,201.4,218.4,144-17.1c-55.5-229.7-57.4-281.4-11.5-335c36.4-45.9,1049.2-400.1,2843.1-995.6c1187-394.4,1784.4-572.5,2674.6-800.3c1336.4-340.8,2996.3-733.3,3107.3-733.3c93.8,0,113,30.6,300.6,444.2c461.4,1016.6,767.7,1931.8,823.3,2448.7c40.2,381,11.5,1005.2-49.8,1072.2c-17.2,19.1-105.3,74.7-195.3,126.4c-90,49.8-333.1,206.8-538,346.5c-1215.7,829-1562.3,1024.3-2182.6,1236.8c-526.5,180-1085.6,271.9-1887.7,306.3C4943.7,3103.6,4750.4,3099.8,4597.2,3090.2z M5085.4,2768.6c-21.1-19.1-162.7-141.7-315.9-271.9c-359.9-306.3-1271.3-1120-1363.2-1215.7c-82.3-88.1-111-153.2-111-260.4v-78.5l-214.4,11.5c-116.8,7.7-216.3,17.2-222.1,23c-67,65.1,1464.6,1726.9,1669.5,1809.3c21.1,9.6,164.7,17.2,317.8,17.2C5118,2805,5121.8,2805,5085.4,2768.6z M5711.5,2751.4c15.3-15.3-323.6-388.7-501.6-551.4c-187.6-172.3-400.1-337-566.7-438.4c-606.9-373.3-762-522.7-786.9-762l-9.6-101.5l-109.1,7.7c-59.4,3.8-137.9,13.4-174.2,21.1c-61.3,11.5-67,19.1-72.8,86.2c-15.3,172.3,145.5,371.4,576.3,714.1c134,109.1,379.1,315.9,545.6,461.4c164.7,145.5,390.6,340.8,499.7,432.7l201,170.4l191.5-13.4C5611.9,2770.5,5703.8,2759,5711.5,2751.4z M3795,2293.8c-440.3-440.3-830.9-882.6-1060.7-1198.5C2655.9,990,2631,967,2598.4,974.6c-23,5.7-107.2,11.5-189.5,11.5h-149.3l44,63.2c23,32.6,147.4,168.5,273.8,300.6s312.1,329.3,411.6,440.3c358,398.2,618.4,670.1,767.7,804.1c141.7,128.3,157,137.9,270,151.3C4300.5,2782,4319.6,2818.4,3795,2293.8z M6100.1,2697.7c93.8-15.3,176.1-32.5,180-36.4c3.8-5.7-57.4-80.4-135.9-166.6c-172.3-191.5-467.2-549.5-989.8-1210c-214.4-270-398.2-495.9-407.8-501.6c-9.6-5.7-172.3,13.4-361.9,42.1L4042,878.9V967c0,212.5,178,409.7,595.4,660.5c432.7,260.4,763.9,534.2,1083.6,892.2c101.5,114.9,189.5,208.7,195.3,208.7C5922.1,2728.4,6004.4,2715,6100.1,2697.7z M3435.1,2466.1c-135.9-135.9-411.6-425-612.7-647.1c-201-220.2-428.9-461.4-507.4-536.1c-78.5-72.8-170.4-166.6-204.8-208.7l-61.3-72.8l-239.3,13.4l-237.4,13.4l38.3,53.6c44,63.2,993.7,1003.2,1223.4,1213.8c88.1,78.5,220.2,195.3,294.8,254.6l134,111l193.4,21.1c107.2,11.5,201,23,208.7,24.9C3672.5,2707.3,3569.1,2600.1,3435.1,2466.1z M3027.3,2625c-15.3-13.4-118.7-103.4-229.7-197.2c-206.8-176.1-1123.8-1076-1296.2-1273.2l-95.7-109.1l-111,11.5l-109.1,11.5l275.7,275.7c539.9,543.7,1160.2,1110.4,1370.8,1250.2c55.5,36.4,111,57.4,155.1,57.4C3044.5,2651.8,3050.3,2648,3027.3,2625z M6709,2554.2c243.2-70.8,235.5-53.6,137.9-354.2c-124.4-377.2-402.1-880.7-716.1-1301.9c-145.5-193.4-333.1-402.1-388.7-430.8c-26.8-15.3-99.6,5.8-317.8,86.2c-155.1,57.4-335,118.7-400.1,135.9c-116.8,32.6-141.7,51.7-101.5,76.6c28.7,17.2,647.1,762,1062.6,1278.9c210.6,262.3,400.1,497.8,419.3,522.7c21.1,24.9,51.7,45.9,67,45.9C6488.8,2613.5,6594.1,2586.7,6709,2554.2z M7346.5,2299.5l214.4-103.4l-28.7-120.6c-97.6-428.9-325.5-903.7-629.9-1313.4c-158.9-212.5-503.5-599.2-532.3-599.2c-21.1,0-490.1,204.9-507.4,222.1c-5.7,3.8,82.3,101.5,191.5,214.4c337,342.7,574.4,672,773.5,1070.2c99.6,197.2,258.5,628,258.5,700.7C7086.1,2420.1,7114.9,2412.5,7346.5,2299.5z M7920.9,1987.4c180-109.1,180-109.1,180-187.6c0-243.2-114.9-675.8-260.4-980.3C7681.6,486.4,7381,88.2,7137.8-110.9l-88.1-72.8L6777.9-47.7c-247,124.4-268,139.8-243.2,168.5c15.3,17.2,147.4,174.2,294.8,344.6c361.9,426.9,484.4,599.3,639.5,913.2c118.7,243.1,248.9,597.3,248.9,683.5c0,19.1,5.7,34.5,11.5,34.5C7737.1,2096.6,7823.2,2046.8,7920.9,1987.4z M8460.8,1635.2c191.5-132.1,201-155.1,183.8-400.1c-49.8-683.5-405.9-1376.6-857.7-1667.6l-112.9-74.7l-222.1,116.8c-122.5,65.1-227.8,122.5-235.5,130.2c-7.6,7.7,49.8,67,126.4,132.1c346.5,289.1,647.1,744.8,804.1,1217.7c59.3,176.1,126.4,495.9,126.4,593.5c0,38.3,3.8,68.9,9.6,68.9S8367,1700.3,8460.8,1635.2z M9044.7,1235l185.7-124.4l-9.6-105.3C9127,88.2,8926-447.9,8554.6-763.8c-168.5-141.7-141.7-143.6-469.1,32.5c-158.9,86.2-291,160.8-289.1,166.6c0,5.7,53.6,34.5,116.8,67c65.1,30.6,178.1,114.9,254.6,185.7c367.6,342.7,595.4,880.7,652.9,1533.6c5.8,82.3,17.2,147.4,24.9,143.6C8851.4,1361.4,8941.3,1304,9044.7,1235z M9598,668.3c42.1-654.8-74.7-1192.8-484.4-2219c-86.2-216.3-158.9-390.6-160.8-388.7c-3.8,3.8-15.3,120.6-26.8,260.4c-24.9,271.9-72.8,465.2-137.8,547.6c-23,28.7-97.7,80.4-166.6,114.9l-126.4,63.2l86.2,53.6c427,269.9,695,819.4,796.5,1638.9l30.6,262.3l88.1-51.7l88.1-51.7L9598,668.3z M1223.8,767.9c1.9-3.8-11.5-51.7-30.6-109.1c-47.9-135.9-168.5-637.5-202.9-836.7c-15.3-88.1-30.6-162.7-32.6-166.6c-3.8-3.8-128.3,34.5-275.7,86.2C369.9-153,389-189.4,492.4,122.7c105.3,319.7,216.3,499.7,379.1,618.4c74.7,55.5,84.2,57.4,212.5,44C1158.7,777.4,1219.9,769.8,1223.8,767.9z M1713.9,725.8c132.1-5.7,241.2-15.3,241.2-19.1c0-3.8-19.1-116.8-42.1-250.8c-49.8-296.8-59.3-829-19.1-1007c15.3-61.3,23-116.8,17.2-120.6c-3.8-3.8-178.1,49.8-386.7,120.6l-377.2,130.2l11.5,151.2c17.2,210.6,80.4,524.6,149.3,739c70.8,222.1,105.3,292.9,137.8,281.4C1459.3,744.9,1579.9,733.4,1713.9,725.8z M2562.1,672.1c9.6-9.6,40.2-292.9,63.2-561c36.4-440.3,139.8-725.6,329.3-896c130.2-116.8,245.1-153.2,494-151.3c377.2,0,654.8,132.1,853.9,404c49.8,67,90,120.6,93.8,120.6c1.9,0-7.7-67-21.1-147.4c-32.5-195.3-84.2-645.2-84.2-742.8c0-42.1-5.7-95.7-11.5-118.7l-11.5-40.2l-107.2,34.5C3701.2-1278.8,2171.5-771.4,2152.3-760c-13.4,7.7-38.3,70.8-57.4,137.9c-47.9,174.2-47.9,742.9,1.9,1062.6c19.1,126.4,40.2,237.4,45.9,247C2150.4,702.8,2546.7,687.5,2562.1,672.1z M3239.8,645.3l51.7-13.4l-45.9-172.3c-51.7-193.4-55.5-270-24.9-415.5c49.8-233.6,195.3-415.5,375.3-467.2c174.2-51.7,419.3,11.5,622.2,155.1c49.8,36.4,91.9,57.4,91.9,47.9c0-42.1-164.7-319.7-235.5-396.3c-145.5-158.9-478.6-275.7-708.4-248.9c-178.1,23-327.4,149.3-419.3,358c-95.7,216.3-168.5,677.8-168.5,1074.1v107.2l206.8-9.6C3098.1,660.7,3213,651.1,3239.8,645.3z M3722.3,610.9c5.8-7.7-7.7-36.4-30.6-67c-55.5-78.5-57.4-243.1-1.9-317.8c59.4-80.4,201-126.4,352.3-114.9c107.2,5.8,191.5,32.6,400.1,122.5c45.9,21.1-95.7-162.7-229.7-298.7c-195.3-195.3-392.5-289.1-534.2-250.8c-227.8,61.3-340.8,459.5-229.7,809.9l40.2,128.3h111C3661,622.4,3714.6,616.6,3722.3,610.9z M4287.1,542l260.4-40.2L4446,409.8c-135.9-122.5-314-214.4-415.5-216.3c-97.6-1.9-170.4,55.5-201,162.7c-19.1,61.3-17.2,80.4,23,149.3C3906.1,601.3,3915.6,601.3,4287.1,542z M5426.2,239.5c59.3-23,109.1-47.9,109.1-57.4c0-7.7-26.8-38.3-59.4-65.1c-45.9-40.2-78.5-49.8-155.1-49.8c-143.6,0-241.2,63.2-317.8,206.8c-34.5,63.2-61.3,118.7-61.3,124.4C4941.8,409.8,5223.3,316,5426.2,239.5z M5064.4-17.1c170.4-86.2,411.6-53.6,562.9,76.6l80.4,67L5937.4,25c126.3-55.5,229.7-107.2,229.7-116.8c0-38.3-252.7-394.4-331.2-467.2c-164.7-151.3-352.3-202.9-484.4-134c-181.9,95.7-384.8,448-474.8,825.2c-13.4,51.7-9.6,49.8,49.8-26.8C4961,59.5,5024.2,5.9,5064.4-17.1z M4830.8-317.7c86.2-164.6,218.2-292.9,373.3-367.6c118.7-55.5,147.4-61.3,312.1-61.3c157,0,197.2,7.6,292.9,51.7c132.1,61.3,310.2,227.8,430.8,398.2c47.9,68.9,90,128.3,91.9,132.1c9.6,11.5,486.3-224,486.3-241.2c0-30.6-398.2-461.4-532.2-576.3c-166.6-141.7-268-212.5-425-291c-386.7-195.3-649-180-861.5,49.8C4805.9-1012.7,4671.9-539.8,4675.7-86V57.6l45.9-128.3C4746.5-141.6,4794.4-252.6,4830.8-317.7z M7208.7-595.3c233.6-122.5,241.2-128.3,241.2-187.6c0-312.1-650.9-863.4-1315.3-1114.3l-116.8-44l-467.2,122.5c-254.6,67-610.7,164.6-790.7,214.4l-325.5,93.8l5.7,180c5.7,170.4,70.8,762,86.2,777.3c3.8,3.8,21.1-59.3,40.2-141.7c49.8-212.5,134-421.2,218.3-530.3c76.6-101.5,229.8-206.8,358-245.1c112.9-32.6,417.4-26.8,564.8,13.4c369.5,99.6,783.1,404,1129.6,832.8c68.9,84.2,126.3,153.2,126.3,155.1C6965.5-468.9,7076.6-526.4,7208.7-595.3z M7928.5-980.1l269.9-147.4l-11.5-76.6c-23-135.9-105.3-361.8-178-480.5c-38.3-63.2-178-225.9-310.2-361.9l-241.2-245.1l-610.8,147.4c-337,82.3-624.1,153.2-637.5,158.9c-13.4,3.8,59.3,49.8,162.7,99.6c668.2,319.7,1150.6,702.6,1233,978.3c13.4,40.2,30.6,74.7,38.3,74.7C7652.8-832.7,7781.1-899.7,7928.5-980.1z M8481.9-1282.6c135.9-67,145.5-122.5,145.5-750.5c0-275.7-5.7-505.4-13.4-513.1c-9.6-11.5-616.5,120.6-938.1,202.9l-72.7,19.1l239.3,231.7c314,302.5,457.6,516.9,509.3,765.8c11.5,49.8,24.9,91.9,28.7,91.9C8386.1-1234.8,8432.1-1255.8,8481.9-1282.6z"/></g></g>
</svg>